<svg xmlns="http://www.w3.org/2000/svg" width="19.024" height="17.389" viewBox="0 0 19.024 17.389"><defs></defs><g transform="translate(0 4.609)"><g transform="translate(8.596 9.649)"><path  class="a" d="M293.918,338.862a1.566,1.566,0,1,0,1.566,1.566A1.584,1.584,0,0,0,293.918,338.862Z" transform="translate(-292.352 -338.862)"/></g><g transform="translate(0 0)"><path class="a" d="M12.916,12.853c-.03,0-.075-.015-.12-.015H3.312l-.151-1.009a1.348,1.348,0,0,0-1.34-1.159H.6a.6.6,0,1,0,0,1.2H1.822a.16.16,0,0,1,.151.135l.933,6.353a1.651,1.651,0,0,0,1.626,1.4h6.262a1.673,1.673,0,0,0,1.626-1.325l.978-4.892A.6.6,0,0,0,12.916,12.853Z" transform="translate(0 -10.67)"/></g><g transform="translate(3.266 9.649)"><path class="a" d="M114.127,340.352a1.556,1.556,0,0,0-1.551-1.49,1.575,1.575,0,0,0-1.505,1.626,1.543,1.543,0,0,0,1.535,1.49h.03A1.562,1.562,0,0,0,114.127,340.352Z" transform="translate(-111.07 -338.862)"/></g></g><path class="a" d="M4.361.563a3.8,3.8,0,1,0,3.8,3.8A3.8,3.8,0,0,0,4.361.563ZM6.566,4.79a.184.184,0,0,1-.184.184H4.973V6.382a.184.184,0,0,1-.184.184H3.932a.184.184,0,0,1-.184-.184V4.973H2.339a.184.184,0,0,1-.184-.184V3.932a.184.184,0,0,1,.184-.184H3.748V2.339a.184.184,0,0,1,.184-.184H4.79a.184.184,0,0,1,.184.184V3.748H6.382a.184.184,0,0,1,.184.184Z" transform="translate(10.865 -0.563)"/><g style="opacity:0;" class="b" transform="translate(-120.024 -753.29)"><circle class="a" cx="2.5" cy="2.5" r="2.5" transform="translate(133.024 755.024)"/><text style="fill:#404d4d;font-size:3px;font-family:Poppins-SemiBold, Poppins;font-weight:600;" class="c" transform="translate(135.024 759.024)"><tspan x="0" y="0">1</tspan></text></g></svg>