<svg xmlns="http://www.w3.org/2000/svg" xmlns:xlink="http://www.w3.org/1999/xlink" width="115.736" height="75.477" viewBox="0 0 115.736 75.477"><defs><style>.a{fill:#550e1c;}.b{fill:#711729;}.c{opacity:0;clip-path:url(#a);}.d{fill:#fea43d;}</style><clipPath id="a"><path d="M37.561,3.3c-1.061-.112-1.031-.29.068-.4l1.244-.127c.253-.026.479-.054.677-.084,1.655-.253.98-.6-1.506-.764-.6-.041-1.157-.087-1.665-.139-4.27-.435-4.268-1.141.006-1.576L37.629.086,37.7.079a23.184,23.184,0,0,1,3.909.007c1.061.112,1.031.29-.068.4L40.294.611c-.253.026-.479.054-.677.084-1.655.253-.98.6,1.506.764.6.041,1.157.087,1.666.139,4.27.435,4.266,1.141-.008,1.576L41.538,3.3l-.068.007c-.537.053-1.229.079-1.921.079C38.826,3.388,38.1,3.359,37.561,3.3Zm-16.588,0c-1.061-.112-1.031-.29.068-.4l1.244-.127c.251-.026.479-.054.677-.084,1.655-.253.98-.6-1.506-.764-.6-.041-1.157-.087-1.666-.139C15.519,1.354,15.522.648,19.8.213L21.04.086l.068-.007a23.184,23.184,0,0,1,3.909.007c1.061.112,1.031.29-.068.4L23.706.611c-.253.026-.479.054-.677.084-1.655.253-.982.6,1.5.764.6.041,1.157.087,1.666.139,4.27.435,4.266,1.141-.006,1.576L24.95,3.3l-.068.007c-.537.053-1.229.079-1.921.079C22.237,3.388,21.515,3.359,20.972,3.3Zm-16.59,0c-1.061-.112-1.031-.29.068-.4l1.244-.127c.253-.026.479-.054.677-.084,1.655-.253.982-.6-1.5-.764-.6-.041-1.157-.087-1.666-.139C-1.069,1.354-1.066.648,3.207.213L4.451.086,4.519.079A23.183,23.183,0,0,1,8.428.086c1.061.112,1.031.29-.068.4L7.116.611C6.864.637,6.637.665,6.439.7c-1.655.253-.98.6,1.506.764.6.041,1.157.087,1.666.139,4.27.435,4.266,1.141-.008,1.576L8.36,3.3l-.068.007c-.536.053-1.228.079-1.92.079C5.648,3.388,4.925,3.359,4.383,3.3Z" transform="translate(0 0)"/></clipPath></defs><g transform="translate(-30.373 -31.793)"><g transform="translate(30.373 47.861)"><path class="a" d="M357.056,293.037l12.41-3.372a4.51,4.51,0,0,1,5.308,3.537,4.386,4.386,0,0,1,.087.886h0a4.51,4.51,0,0,1-3.272,4.336l-16.2,4.258-5.38,9.459,23.483-5.6a13.252,13.252,0,0,0,10.274-12.914h0a13.252,13.252,0,0,0-17.445-12.573l-9.263,3.085v8.9Z" transform="translate(-268.028 -280.368)"/><path class="a" d="M30.373,459.932H132.755A13.353,13.353,0,0,1,119.4,473.286H43.727a13.353,13.353,0,0,1-13.354-13.354Z" transform="translate(-30.373 -413.878)"/></g><path class="a" d="M56.407,260.339v6.677A51.161,51.161,0,0,0,82.33,311.53h37.183a51.161,51.161,0,0,0,25.923-44.514v-6.677Z" transform="translate(-19.357 -217.615)"/><path class="b" d="M241.6,260.339v6.677a51.162,51.162,0,0,1-25.923,44.514h22.257a51.161,51.161,0,0,0,25.922-44.514v-6.677Z" transform="translate(-137.775 -217.615)"/><g transform="translate(43.727 49.401)"><path class="b" d="M97.83,339.215c-6.557-5.248-9.484-13.261-10.781-19.057l4.342-.975c1.144,5.1,3.67,12.114,9.221,16.555Z" transform="translate(-85.867 -310.769)"/><path class="b" d="M82.8,291.107a41.088,41.088,0,0,1-.363-4.734h4.451a37.322,37.322,0,0,0,.327,4.171Z" transform="translate(-82.44 -286.373)"/></g><g class="c" transform="translate(58.57 31.793)"><path class="d" d="M37.561,32.4a2.764,2.764,0,0,1,.068-3.909l1.244-1.244a5.41,5.41,0,0,0-.83-8.326A10.937,10.937,0,0,1,36.385,2.088L37.629.844c.022-.022.044-.046.068-.068a2.765,2.765,0,0,1,3.841,3.977L40.294,6a5.41,5.41,0,0,0,.83,8.326,10.937,10.937,0,0,1,1.658,16.835L41.538,32.4c-.022.022-.044.046-.068.068a2.764,2.764,0,0,1-3.909-.068Zm-16.588,0a2.764,2.764,0,0,1,.068-3.909l1.244-1.244a5.481,5.481,0,0,0,.677-.827,5.409,5.409,0,0,0-1.506-7.5A10.932,10.932,0,0,1,19.8,2.088L21.04.844c.022-.022.044-.046.068-.068A2.765,2.765,0,0,1,24.95,4.753L23.706,6a5.411,5.411,0,0,0,.828,8.326,10.938,10.938,0,0,1,1.66,16.835L24.95,32.4c-.022.024-.046.046-.068.068a2.764,2.764,0,0,1-3.909-.068Zm-16.59,0a2.764,2.764,0,0,1,.068-3.909l1.244-1.244a5.411,5.411,0,0,0-.828-8.326A10.933,10.933,0,0,1,3.207,2.088L4.451.844,4.519.776A2.765,2.765,0,0,1,8.36,4.753L7.116,6a5.476,5.476,0,0,0-.677.827,5.409,5.409,0,0,0,1.506,7.5A10.875,10.875,0,0,1,9.612,15.69,10.936,10.936,0,0,1,9.6,31.158L8.36,32.4c-.022.024-.044.046-.068.068A2.764,2.764,0,0,1,4.383,32.4Z" transform="translate(0 -29.858)"/></g></g></svg>