<svg xmlns="http://www.w3.org/2000/svg" width="20.524" height="19.111" viewBox="0 0 20.524 19.111"><defs><style>.a{fill:#550e1c;}</style></defs><g transform="translate(0 0)"><path class="a" d="M20.18,25.683l-3.11-3.11V18.98a1.176,1.176,0,0,0-2.353,0v1.24L12.4,17.9a3.1,3.1,0,0,0-4.278,0L.345,25.683a1.177,1.177,0,0,0,1.664,1.664l7.777-7.777a.694.694,0,0,1,.952,0l7.778,7.778a1.177,1.177,0,1,0,1.664-1.664Z" transform="translate(-0.001 -17.047)"/><path class="a" d="M76.454,127.917a.577.577,0,0,0-.817,0L68.8,134.756a.579.579,0,0,0-.169.409v4.988a2.12,2.12,0,0,0,2.119,2.12h3.387v-5.245h3.824v5.245h3.387a2.12,2.12,0,0,0,2.119-2.119v-4.988a.577.577,0,0,0-.169-.409Z" transform="translate(-65.784 -123.162)"/></g></svg>