<svg xmlns="http://www.w3.org/2000/svg" width="14.062" height="10.935" viewBox="0 0 14.062 10.935"><defs><style>.a{fill:#6d6262;}</style></defs><path class="a" d="M6.844,5.09,2.343,8.8v4a.391.391,0,0,0,.391.391l2.736-.007a.391.391,0,0,0,.389-.391V10.455a.391.391,0,0,1,.391-.391H7.811a.391.391,0,0,1,.391.391V12.79a.391.391,0,0,0,.391.392l2.735.008a.391.391,0,0,0,.391-.391v-4l-4.5-3.7A.3.3,0,0,0,6.844,5.09Zm7.11,2.52L11.912,5.928V2.546a.293.293,0,0,0-.293-.293H10.252a.293.293,0,0,0-.293.293V4.319l-2.186-1.8a1.172,1.172,0,0,0-1.489,0L.105,7.61a.293.293,0,0,0-.039.413l.623.757a.293.293,0,0,0,.413.04L6.844,4.09a.3.3,0,0,1,.374,0l5.742,4.73a.293.293,0,0,0,.413-.039l.623-.757a.293.293,0,0,0-.041-.413Z" transform="translate(0.001 -2.254)"/></svg>