<svg xmlns="http://www.w3.org/2000/svg" width="21.376" height="20.376" viewBox="0 0 21.376 20.376"><defs><style>.a{fill:rgba(104,104,104,0.65);}</style></defs><g transform="translate(13.704 15.384)"><path class="a" d="M294.848,338.862a2.5,2.5,0,1,0,2.5,2.5A2.525,2.525,0,0,0,294.848,338.862Z" transform="translate(-292.352 -338.862)"/></g><g transform="translate(0 0)"><path class="a" d="M20.592,14.15c-.048,0-.12-.024-.192-.024H5.28l-.24-1.608A2.149,2.149,0,0,0,2.9,10.67H.96a.96.96,0,1,0,0,1.92H2.9a.255.255,0,0,1,.24.216L4.632,22.934a2.631,2.631,0,0,0,2.592,2.232h9.984A2.667,2.667,0,0,0,19.8,23.054l1.56-7.8A.949.949,0,0,0,20.592,14.15Z" transform="translate(0 -10.67)"/></g><g transform="translate(5.206 15.384)"><path class="a" d="M115.944,341.238a2.481,2.481,0,0,0-2.472-2.376,2.51,2.51,0,0,0-2.4,2.592,2.46,2.46,0,0,0,2.448,2.376h.048A2.491,2.491,0,0,0,115.944,341.238Z" transform="translate(-111.07 -338.862)"/></g></svg>