<svg xmlns="http://www.w3.org/2000/svg" width="17" height="20.376" viewBox="0 0 17 20.376"><defs><style>.a{fill:rgba(104,104,104,0.65);}</style></defs><path class="a" d="M91.939,9.815a4.749,4.749,0,0,0,3.47-1.438,4.748,4.748,0,0,0,1.438-3.47,4.749,4.749,0,0,0-1.438-3.47,4.906,4.906,0,0,0-6.94,0,4.749,4.749,0,0,0-1.438,3.47,4.748,4.748,0,0,0,1.438,3.47A4.75,4.75,0,0,0,91.939,9.815Zm0,0" transform="translate(-83.568 0)"/><path class="a" d="M16.958,253.142a12.121,12.121,0,0,0-.165-1.287,10.143,10.143,0,0,0-.317-1.294,6.394,6.394,0,0,0-.532-1.207,4.556,4.556,0,0,0-.8-1.046,3.538,3.538,0,0,0-1.153-.724,3.984,3.984,0,0,0-1.472-.266,1.494,1.494,0,0,0-.8.338c-.239.156-.519.336-.831.536a4.761,4.761,0,0,1-1.075.474,4.175,4.175,0,0,1-2.63,0,4.75,4.75,0,0,1-1.074-.474c-.309-.2-.589-.378-.832-.536a1.492,1.492,0,0,0-.8-.338,3.979,3.979,0,0,0-1.471.267,3.535,3.535,0,0,0-1.153.724,4.556,4.556,0,0,0-.8,1.046,6.407,6.407,0,0,0-.532,1.207,10.168,10.168,0,0,0-.317,1.294,12.079,12.079,0,0,0-.165,1.288c-.027.39-.041.795-.041,1.2a3.384,3.384,0,0,0,1,2.56,3.617,3.617,0,0,0,2.589.945h9.811a3.617,3.617,0,0,0,2.589-.945A3.382,3.382,0,0,0,17,254.345c0-.411-.014-.816-.041-1.2Zm0,0" transform="translate(0 -237.474)"/></svg>