<svg xmlns="http://www.w3.org/2000/svg" width="17.972" height="21.567" viewBox="0 0 17.972 21.567"><defs><style>.a{fill:rgba(104,104,104,0.65);}</style></defs><path class="a" d="M19.414,15.2a6.019,6.019,0,0,1-2.138-4.605V8.088a6.3,6.3,0,0,0-5.392-6.218V.9a.9.9,0,1,0-1.8,0v.971A6.3,6.3,0,0,0,4.7,8.088v2.505A6.026,6.026,0,0,1,2.55,15.206a1.572,1.572,0,0,0,1.023,2.767H18.4A1.573,1.573,0,0,0,19.414,15.2Z" transform="translate(-2 0)"/><path class="a" d="M11.628,23.7a3.375,3.375,0,0,0,3.3-2.7h-6.6A3.375,3.375,0,0,0,11.628,23.7Z" transform="translate(-2.641 -2.129)"/></svg>