<svg xmlns="http://www.w3.org/2000/svg" width="20.524" height="19.111"><defs><style>.a{fill:#550e1c}</style></defs><path class="a" d="m20.179 8.636-3.11-3.11V1.933a1.177 1.177 0 0 0-2.353 0v1.24L12.399.853a3.1 3.1 0 0 0-4.278 0L.344 8.636A1.177 1.177 0 0 0 2.008 10.3l7.777-7.777a.694.694 0 0 1 .952 0l7.778 7.778a1.177 1.177 0 1 0 1.664-1.664Z"/><path class="a" d="M10.67 4.755a.577.577 0 0 0-.817 0l-6.837 6.839a.579.579 0 0 0-.169.409v4.988a2.12 2.12 0 0 0 2.119 2.12h3.387v-5.245h3.824v5.245h3.387a2.12 2.12 0 0 0 2.119-2.119v-4.988a.577.577 0 0 0-.169-.409Z"/></svg>