<svg xmlns="http://www.w3.org/2000/svg" width="19.111" height="21" viewBox="0 0 19.111 21">
  <g id="noun_History_3846711" transform="translate(-4 -3.16)">
    <g id="Group_8219" data-name="Group 8219" transform="translate(4 3.16)">
      <path id="Path_9814" data-name="Path 9814" d="M7.53,17.1a3.53,3.53,0,1,0,3.53,3.53A3.53,3.53,0,0,0,7.53,17.1Zm.562,3.53a.562.562,0,0,1-.562.562H6.248a.562.562,0,1,1,0-1.124h.719v-1.18a.571.571,0,0,1,.562-.562.562.562,0,0,1,.562.562ZM20.121,3.16H9.8A3,3,0,0,0,6.81,6.15v9.893a5.034,5.034,0,0,1,.719-.067,4.663,4.663,0,0,1,4.654,4.654,4.715,4.715,0,0,1-.337,1.743h8.274a3,3,0,0,0,2.99-2.99V6.15A2.989,2.989,0,0,0,20.121,3.16Zm-.933,14.648H13.556a.562.562,0,1,1,0-1.124h5.632a.562.562,0,1,1,0,1.124Zm0-4.486H10.734a.562.562,0,0,1-.562-.562.571.571,0,0,1,.562-.562h8.454a.562.562,0,1,1,0,1.124Zm0-4.474H10.734a.571.571,0,0,1-.562-.562.562.562,0,0,1,.562-.562h8.454a.562.562,0,1,1,0,1.124Z" transform="translate(-4 -3.16)" fill="rgba(104,104,104,0.65)"/>
    </g>
  </g>
</svg>
