<svg xmlns="http://www.w3.org/2000/svg" width="167" height="109.724" viewBox="0 0 167 109.724">
  <g id="illustration" transform="translate(-104 -252.276)">
    <path id="Background" d="M46,70a7,7,0,1,1,0-14H7A7,7,0,1,1,7,42H47a7,7,0,0,0,0-14H22a7,7,0,0,1,0-14H62A7,7,0,1,1,62,0h98a7,7,0,0,1,0,14H120a7,7,0,1,1,0,14h22a7,7,0,0,1,0,14H131.826C126.951,42,123,45.134,123,49s6,7,6,7a7,7,0,0,1,0,14ZM153,35a7,7,0,1,1,7,7A7,7,0,0,1,153,35Z" transform="translate(104 282)" fill="#edd8d8"/>
    <g id="Shape" transform="translate(154 295)" fill="#fff">
      <path d="M 63 65.74960327148438 L 18 65.74960327148438 C 17.58656120300293 65.74960327148438 17.25020027160645 65.41323852539062 17.25020027160645 64.99980163574219 L 17.25020027160645 47.99160003662109 L 17.25020027160645 46.70111083984375 L 15.96036052703857 46.74223327636719 C 15.80283069610596 46.74726104736328 15.65218067169189 46.74970245361328 15.49980068206787 46.74970245361328 C 11.71570110321045 46.74970245361328 8.151451110839844 45.12620162963867 5.463640689849854 42.17826080322266 C 2.74643087387085 39.19808197021484 1.250000834465027 35.22809219360352 1.250000834465027 30.99960136413574 C 1.250000834465027 26.77118110656738 2.746420860290527 22.80136108398438 5.463610649108887 19.8214225769043 C 8.151371002197266 16.87375068664551 11.71563053131104 15.25040149688721 15.49980068206787 15.25040149688721 C 15.65240097045898 15.25040149688721 15.80715084075928 15.25291156768799 15.95975112915039 15.25785160064697 L 17.25020027160645 15.29962158203125 L 17.25020027160645 14.00850200653076 L 17.25020027160645 3.999601602554321 C 17.25020027160645 2.483471632003784 18.48367118835449 1.250001668930054 19.99980163574219 1.250001668930054 L 61.00020217895508 1.250001668930054 C 62.51633071899414 1.250001668930054 63.74980163574219 2.483471632003784 63.74980163574219 3.999601602554321 L 63.74980163574219 64.99980163574219 C 63.74980163574219 65.41323852539062 63.4134407043457 65.74960327148438 63 65.74960327148438 Z M 15.49980068206787 21.25000190734863 C 10.8220911026001 21.25000190734863 7.016500949859619 25.6236515045166 7.016500949859619 30.99960136413574 C 7.016500949859619 36.37604141235352 10.8220911026001 40.75010299682617 15.49980068206787 40.75010299682617 C 15.69326114654541 40.75010299682617 15.8879508972168 40.74245071411133 16.09499168395996 40.72669982910156 L 17.25020027160645 40.63885116577148 L 17.25020027160645 39.48030090332031 L 17.25020027160645 22.51980209350586 L 17.25020027160645 21.36739158630371 L 16.10159111022949 21.27392196655273 C 15.90656089782715 21.2580509185791 15.70409107208252 21.25000190734863 15.49980068206787 21.25000190734863 Z" stroke="none"/>
      <path d="M 62.49980163574219 64.49960327148438 L 62.49980163574219 3.999601602554321 C 62.49980163574219 3.172723770141602 61.82707977294922 2.500001668930054 61.00020217895508 2.500001668930054 L 19.99980163574219 2.500001668930054 C 19.17292213439941 2.500001668930054 18.50020027160645 3.172723770141602 18.50020027160645 3.999601602554321 L 18.50020027160645 16.59070205688477 L 15.91935634613037 16.5071907043457 C 15.78005599975586 16.5026912689209 15.63888931274414 16.50040245056152 15.49980068206787 16.50040245056152 C 12.07148933410645 16.50040245056152 8.835267066955566 17.97893524169922 6.38727855682373 20.66364669799805 C 3.880534172058105 23.41280174255371 2.500000715255737 27.0835132598877 2.500000715255737 30.99960136413574 C 2.500000715255737 34.91577911376953 3.880545377731323 38.586669921875 6.38733434677124 41.33606719970703 C 8.835378646850586 44.02102279663086 12.07157897949219 45.49970245361328 15.49980068206787 45.49970245361328 C 15.63871192932129 45.49970245361328 15.77634525299072 45.49746704101562 15.92055606842041 45.49286651611328 L 18.50020027160645 45.41064453125 L 18.50020027160645 64.49960327148438 L 62.49980163574219 64.49960327148438 M 15.49980068206787 20.00000190734863 C 15.73777866363525 20.00000190734863 15.97436714172363 20.00943565368652 16.20297813415527 20.02803421020508 L 18.50020027160645 20.21497917175293 L 18.50020027160645 41.79736709594727 L 16.18981170654297 41.97310256958008 C 15.95095634460449 41.99126815795898 15.72524547576904 42.00010299682617 15.49980068206787 42.00010299682617 C 10.13284492492676 42.00010299682617 5.766500949859619 37.06529998779297 5.766500949859619 30.99960136413574 C 5.766500949859619 24.93440246582031 10.13284492492676 20.00000190734863 15.49980068206787 20.00000190734863 M 63 66.99960327148438 L 18 66.99960327148438 C 16.89731216430664 66.99960327148438 16.00020027160645 66.10249328613281 16.00020027160645 64.99980163574219 L 16.00020027160645 47.99160003662109 C 15.81893444061279 47.99737930297852 15.65491199493408 47.99970245361328 15.49980068206787 47.99970245361328 C 11.35981178283691 47.99970245361328 7.467534065246582 46.23136901855469 4.539945125579834 43.02044677734375 C 1.612323045730591 39.80949020385742 8.178710686479462e-07 35.54040145874023 8.178710686479462e-07 30.99960136413574 C 8.178710686479462e-07 26.4588451385498 1.612323045730591 22.1899242401123 4.539945125579834 18.97920227050781 C 7.46747875213623 15.76856803894043 11.35975646972656 14.00040149688721 15.49980068206787 14.00040149688721 C 15.66596794128418 14.00040149688721 15.83433437347412 14.00313472747803 16.00020027160645 14.00850200653076 L 16.00020027160645 3.999601602554321 C 16.00020027160645 1.794212698936462 17.79441261291504 1.635742137295892e-06 19.99980163574219 1.635742137295892e-06 L 61.00020217895508 1.635742137295892e-06 C 63.20558929443359 1.635742137295892e-06 64.99980163574219 1.794212698936462 64.99980163574219 3.999601602554321 L 64.99980163574219 64.99980163574219 C 64.99980163574219 66.10249328613281 64.10269165039062 66.99960327148438 63 66.99960327148438 Z M 15.49980068206787 22.50000190734863 C 11.51134490966797 22.50000190734863 8.266500473022461 26.31290245056152 8.266500473022461 30.99960136413574 C 8.266500473022461 35.68679046630859 11.51134490966797 39.50010299682617 15.49980068206787 39.50010299682617 C 15.66136741638184 39.50010299682617 15.8250560760498 39.49362564086914 16.00020027160645 39.48030090332031 L 16.00020027160645 22.51980209350586 C 15.84291172027588 22.50700187683105 15.67424488067627 22.50000190734863 15.49980068206787 22.50000190734863 Z" stroke="none" fill="#414141"/>
    </g>
    <path id="line" d="M1,24.181v0Zm0-24v0Z" transform="translate(209 304)" fill="none" stroke="#897f7f" stroke-linecap="round" stroke-linejoin="round" stroke-width="2.5"/>
    <path id="ground_line" d="M114.128.5h0ZM87,.5h0ZM13,.5h0ZM.128.5h0Z" transform="translate(136 354)" fill="none" stroke="#414141" stroke-linecap="round" stroke-linejoin="round" stroke-width="2.5"/>
    <path id="line-2" data-name="line" d="M4,0S0,6.32,0,11c0,5.556,4.654,8.044,4.654,14.063,0,4.582-4.654,9.1-4.654,9.1" transform="translate(193 254)" fill="none" stroke="#897f7f" stroke-linecap="round" stroke-width="2.5"/>
    <path id="line-3" data-name="line" d="M.128,0c-.873,5.513,3,6.532,3,11.475,0,3.763-3,7.525-3,7.525" transform="translate(184.872 265)" fill="none" stroke="#897f7f" stroke-linecap="round" stroke-width="2.5"/>
    <path id="line-4" data-name="line" d="M.738,0C-.583,3.419.159,5.5.738,6.73c1.237,2.622,3.2,4.885,3.2,7.554,0,4.648-3.2,8.947-3.2,8.947" transform="translate(203.058 262.475)" fill="none" stroke="#897f7f" stroke-linecap="round" stroke-width="2.5"/>
  </g>
</svg>
