<svg id="NoDocuments" xmlns="http://www.w3.org/2000/svg" width="167" height="102.178" viewBox="0 0 167 102.178">
  <path id="Background" d="M46,70a7,7,0,1,1,0-14H7A7,7,0,1,1,7,42H47a7,7,0,0,0,0-14H22a7,7,0,0,1,0-14H62A7,7,0,1,1,62,0h98a7,7,0,0,1,0,14H120a7,7,0,1,1,0,14h22a7,7,0,0,1,0,14H131.826C126.951,42,123,45.134,123,49s6,7,6,7a7,7,0,0,1,0,14ZM153,35a7,7,0,1,1,7,7A7,7,0,0,1,153,35Z" transform="translate(0 15)" fill="#edd8d8"/>
  <path id="Shape" d="M63,79.979H4a4,4,0,0,1-4-4V2A2,2,0,0,1,2,0h.021L6.909.051l3.953.04L13.7.122,66.036.651,67,69.122v6.857A4,4,0,0,1,63,79.979Z" transform="translate(41.049 21.402) rotate(-7)" fill="#fff" stroke="#414141" stroke-linecap="round" stroke-width="2.5"/>
  <path id="Rectangle" d="M59.136.609,60,62.66v6.215A3.6,3.6,0,0,1,56.418,72.5H3.582A3.6,3.6,0,0,1,0,68.875V2A2,2,0,0,1,2,0H8.536" transform="translate(45.37 24.872) rotate(-7)" fill="#edd8d8"/>
  <g id="Rectangle-2" data-name="Rectangle" transform="translate(59.672 0)" fill="#fff">
    <path d="M 63 82.75 L 4 82.75 C 2.483647108078003 82.75 1.25 81.51634979248047 1.25 80 L 1.25 4 C 1.25 2.483647108078003 2.483647108078003 1.25 4 1.25 L 49.55676651000977 1.25 C 50.29098892211914 1.25 50.98136520385742 1.535835266113281 51.50071716308594 2.054858922958374 L 64.94393920898438 15.48977661132812 C 65.46373748779297 16.00924682617188 65.75 16.70004653930664 65.75 17.43492889404297 L 65.75 80 C 65.75 81.51634979248047 64.51634979248047 82.75 63 82.75 Z" stroke="none"/>
    <path d="M 4 2.5 C 3.172893524169922 2.5 2.5 3.172889709472656 2.5 4 L 2.5 80 C 2.5 80.82711029052734 3.172893524169922 81.5 4 81.5 L 63 81.5 C 63.82710647583008 81.5 64.5 80.82711029052734 64.5 80 L 64.5 17.43492126464844 C 64.5 17.03409576416016 64.34385681152344 16.65729522705078 64.06031799316406 16.37393188476562 L 50.61709594726562 2.939010620117188 C 50.33381271362305 2.655906677246094 49.95725250244141 2.5 49.5567626953125 2.5 L 4 2.5 M 4 0 L 49.5567626953125 0 C 50.61720275878906 0 51.63423919677734 0.4210968017578125 52.38430786132812 1.170692443847656 L 65.82754516601562 14.60562896728516 C 66.57822418212891 15.35584259033203 67 16.37362670898438 67 17.43492126464844 L 67 80 C 67 82.20913696289062 65.20913696289062 84 63 84 L 4 84 C 1.790863037109375 84 0 82.20913696289062 0 80 L 0 4 C 0 1.790863037109375 1.790863037109375 0 4 0 Z" stroke="none" fill="#414141"/>
  </g>
  <path id="Shape-2" data-name="Shape" d="M0,0V11.6a3,3,0,0,0,3,3h7.934" transform="translate(109.672 2.403)" fill="none" stroke="#414141" stroke-linecap="round" stroke-linejoin="round" stroke-width="2.5"/>
  <path id="lines" d="M0,51.5H0Zm0-13H0Zm0-13H0Zm0-13H0ZM0,.5H0Z" transform="translate(71.672 16.5)" fill="none" stroke="#897f7f" stroke-linecap="round" stroke-linejoin="round" stroke-width="2.5"/>
</svg>
