<svg xmlns="http://www.w3.org/2000/svg" width="159.461" height="107.336" viewBox="0 0 159.461 107.336">
  <g id="NoGPS" transform="translate(0 1.768)">
    <path id="Background" d="M43.923,66.84a6.684,6.684,0,0,1,0-13.368H6.684a6.684,6.684,0,1,1,0-13.367H44.878a6.684,6.684,0,1,0,0-13.368H21.006a6.684,6.684,0,0,1,0-13.367H59.2A6.684,6.684,0,1,1,59.2,0h93.576a6.684,6.684,0,1,1,0,13.368H114.582a6.684,6.684,0,1,1,0,13.367H135.59a6.684,6.684,0,1,1,0,13.368h-9.715c-4.654,0-8.427,2.992-8.427,6.683s5.729,6.684,5.729,6.684a6.684,6.684,0,0,1,0,13.368Zm102.17-33.42a6.684,6.684,0,1,1,6.684,6.684A6.684,6.684,0,0,1,146.093,33.42Z" transform="translate(0 20.052)" fill="#edd8d8"/>
    <path id="cloud" d="M11.388,35.33h-.905a10.468,10.468,0,1,1,0-20.936H10.6A15.961,15.961,0,0,1,26.208,0C34.689,0,41.6,6.983,41.922,15.723c5.128.331,9.64,5.322,9.64,10.526,0,4.273-3.164,9.081-6.913,9.081H18.58" transform="translate(13.219 11.458)" fill="#fff" stroke="#897f7f" stroke-linecap="round" stroke-width="2.5"/>
    <g id="Shape" transform="translate(41.059 3.819)" fill="#fff">
      <path d="M 38.19763565063477 100.4990234375 C 36.8391227722168 100.4990234375 35.56988143920898 99.89473724365234 34.71536636352539 98.84111785888672 C 23.56667900085449 85.09477996826172 15.09367942810059 72.99053192138672 9.531736373901367 62.86460494995117 C 4.036379337310791 52.85992050170898 1.250008106231689 44.55959320068359 1.250008106231689 38.19417572021484 C 1.250008106231689 33.20619201660156 2.226636648178101 28.36807823181152 4.152750968933105 23.8142204284668 C 6.01342248916626 19.41509246826172 8.677408218383789 15.46399211883545 12.07070827484131 12.07070636749268 C 15.46399402618408 8.677406311035156 19.41509437561035 6.013420104980469 23.81422233581543 4.152748584747314 C 28.36808013916016 2.226634502410889 33.20619201660156 1.250005960464478 38.19417953491211 1.250005960464478 C 43.18216705322266 1.250005960464478 48.02027893066406 2.226634502410889 52.57413482666016 4.152748584747314 C 56.9732780456543 6.013420104980469 60.92436599731445 8.677406311035156 64.31766510009766 12.07070636749268 C 67.71095275878906 15.46399211883545 70.37493896484375 19.41509246826172 72.23561859130859 23.8142204284668 C 74.16173553466797 28.36807823181152 75.13836669921875 33.20619201660156 75.13836669921875 38.19417572021484 C 75.13836669921875 44.55957794189453 72.35198211669922 52.85992050170898 66.85662078857422 62.86460494995117 C 61.294677734375 72.99051666259766 52.82167816162109 85.09477996826172 41.67299270629883 98.84111785888672 C 41.4776496887207 99.08199310302734 41.25646591186523 99.30316162109375 41.01560974121094 99.49848937988281 C 40.20856475830078 100.1530456542969 39.23412322998047 100.4990234375 38.19763565063477 100.4990234375 Z" stroke="none"/>
      <path d="M 38.19763946533203 99.24900817871094 C 38.94421005249023 99.24900817871094 39.6463623046875 98.99957275390625 40.22817993164062 98.5277099609375 C 40.40185546875 98.38684844970703 40.56133270263672 98.22737121582031 40.70216369628906 98.05374145507812 C 51.80391693115234 84.36524963378906 60.23494720458984 72.32343292236328 65.76102447509766 62.26282119750977 C 71.1539306640625 52.44465255737305 73.88836669921875 44.3467903137207 73.88836669921875 38.19417572021484 C 73.88836669921875 33.3743896484375 72.94496154785156 28.70009803771973 71.08436584472656 24.3011589050293 C 69.28670501708984 20.0510196685791 66.71266937255859 16.23348236083984 63.43378067016602 12.95458984375 C 60.15488815307617 9.675682067871094 56.33733367919922 7.101666450500488 52.08719635009766 5.304004669189453 C 47.68825531005859 3.443404912948608 43.01396560668945 2.500004768371582 38.19417953491211 2.500004768371582 C 33.37439346313477 2.500004768371582 28.70010185241699 3.443404912948608 24.3011646270752 5.304004669189453 C 20.051025390625 7.101666450500488 16.23347091674805 9.675682067871094 12.95457935333252 12.95458984375 C 9.675686836242676 16.23348236083984 7.101656436920166 20.0510196685791 5.303995132446289 24.3011589050293 C 3.443394899368286 28.70009803771973 2.499994993209839 33.3743896484375 2.499994993209839 38.19417572021484 C 2.499994993209839 44.3467903137207 5.23442554473877 52.44465255737305 10.62733364105225 62.26282119750977 C 16.1534252166748 72.32344818115234 24.58444023132324 84.36524963378906 35.68622589111328 98.05374145507812 C 36.30228805541992 98.81334686279297 37.21765518188477 99.24900817871094 38.19763946533203 99.24900817871094 M 38.19764709472656 101.7490081787109 C 36.53000640869141 101.7490081787109 34.8768310546875 101.0246276855469 33.74453353881836 99.62849426269531 C 11.24817943572998 71.89048004150391 -5.080472419649595e-06 51.41237258911133 -5.080472419649595e-06 38.19417572021484 C -5.080472419649595e-06 17.10011291503906 17.10011863708496 4.86074577565887e-06 38.19417953491211 4.86074577565887e-06 C 59.28824234008789 4.86074577565887e-06 76.38836669921875 17.10011291503906 76.38836669921875 38.19417572021484 C 76.38836669921875 51.41237258911133 65.14018249511719 71.89048004150391 42.64384078979492 99.62849426269531 C 42.39347076416016 99.93718719482422 42.11167144775391 100.2189865112305 41.802978515625 100.4693603515625 C 40.74163436889648 101.3301391601562 39.46539306640625 101.7490081787109 38.19764709472656 101.7490081787109 Z" stroke="none" fill="#414141"/>
    </g>
    <g id="Oval" transform="translate(60.156 22.917)" fill="#edd8d8">
      <path d="M 19.09708976745605 36.94417953491211 C 15.64132976531982 36.94417953491211 12.28934001922607 35.95544815063477 9.40349006652832 34.08486938476562 C 7.765969753265381 33.02344131469727 6.320019721984863 31.70903968811035 5.10582971572876 30.17815971374512 C 3.881489753723145 28.63450050354004 2.928199768066406 26.91474914550781 2.272449731826782 25.06666946411133 C 1.593999743461609 23.15461921691895 1.249999761581421 21.14616966247559 1.249999761581421 19.09708976745605 C 1.249999761581421 14.32995986938477 3.106419801712036 9.848159790039062 6.47728967666626 6.47728967666626 C 9.848159790039062 3.106419801712036 14.32995986938477 1.249999761581421 19.09708976745605 1.249999761581421 C 23.86421966552734 1.249999761581421 28.34601974487305 3.106419801712036 31.71689033508301 6.47728967666626 C 35.08776092529297 9.848159790039062 36.94417953491211 14.32995986938477 36.94417953491211 19.09708976745605 C 36.94417953491211 23.86421966552734 35.08776092529297 28.34601974487305 31.71689033508301 31.71689033508301 C 28.34601974487305 35.08776092529297 23.86421966552734 36.94417953491211 19.09708976745605 36.94417953491211 Z" stroke="none"/>
      <path d="M 19.09708976745605 35.69417953491211 C 23.53033065795898 35.69417953491211 27.69822883605957 33.96778106689453 30.83300018310547 30.83300018310547 C 33.96778106689453 27.69822883605957 35.69417953491211 23.53033065795898 35.69417953491211 19.09708976745605 C 35.69417953491211 14.66384983062744 33.96778106689453 10.49594974517822 30.83300018310547 7.361179828643799 C 27.69822883605957 4.226399898529053 23.53033065795898 2.499999761581421 19.09708976745605 2.499999761581421 C 14.66384983062744 2.499999761581421 10.49594974517822 4.226399898529053 7.361179828643799 7.361179828643799 C 4.226399898529053 10.49594974517822 2.499999761581421 14.66384983062744 2.499999761581421 19.09708976745605 C 2.499999761581421 21.00337028503418 2.819789886474609 22.87120056152344 3.45048975944519 24.6486701965332 C 4.060109615325928 26.36676025390625 4.946549892425537 27.96579933166504 6.085179805755615 29.40139007568359 C 7.214839935302734 30.82567977905273 8.560029983520508 32.04851913452148 10.08339023590088 33.03594970703125 C 12.76628971099854 34.77497863769531 15.88317966461182 35.69417953491211 19.09708976745605 35.69417953491211 M 19.09708976745605 38.19417953491211 C 15.27250957489014 38.19417953491211 11.71051979064941 37.06988906860352 8.723589897155762 35.1337890625 C 6.972619533538818 33.99882888793945 5.419259548187256 32.58488845825195 4.126469612121582 30.95491981506348 C 1.542939782142639 27.69758987426758 -2.325439538708451e-07 23.57752990722656 -2.325439538708451e-07 19.09708976745605 C -2.325439538708451e-07 8.55005931854248 8.55005931854248 -2.325439538708451e-07 19.09708976745605 -2.325439538708451e-07 C 29.64411926269531 -2.325439538708451e-07 38.19417953491211 8.55005931854248 38.19417953491211 19.09708976745605 C 38.19417953491211 29.64411926269531 29.64411926269531 38.19417953491211 19.09708976745605 38.19417953491211 Z" stroke="none" fill="#414141"/>
    </g>
    <path id="Star" d="M8.449,9.408a8.594,8.594,0,0,0-6.769,0L0,10.128.72,8.449a8.594,8.594,0,0,0,0-6.769L0,0,1.679.72a8.594,8.594,0,0,0,6.769,0L10.128,0l-.72,1.679a8.594,8.594,0,0,0,0,6.769l.72,1.679Z" transform="translate(120.789 0) rotate(45)" fill="none" stroke="#897f7f" stroke-linejoin="round" stroke-width="2.5"/>
    <path id="cloud-2" data-name="cloud" d="M8.3,25.781H7.639a7.639,7.639,0,0,1,0-15.278H7.72A11.637,11.637,0,0,1,19.1,0a11.683,11.683,0,0,1,11.45,11.473,7.969,7.969,0,0,1,7.024,7.681c0,3.118-2.306,6.627-5.037,6.627h-19" transform="translate(92.621 61.111)" fill="#fff" stroke="#897f7f" stroke-linecap="round" stroke-width="2.5"/>
  </g>
</svg>
