<svg id="Group_26808" data-name="Group 26808" xmlns="http://www.w3.org/2000/svg" width="181" height="150" viewBox="0 0 181 150">
  <path id="Path_9815" data-name="Path 9815" d="M75,150A75,75,0,1,0,0,75,75,75,0,0,0,75,150Z" fill="#edd8d8"/>
  <g id="Group_8222" data-name="Group 8222">
    <path id="Path_9816" data-name="Path 9816" d="M41,34H176a5,5,0,0,1,5,5V64a5,5,0,0,1-5,5H41a5,5,0,0,1-5-5V39a5,5,0,0,1,5-5Z" fill="#fff"/>
  </g>
  <path id="Path_9817" data-name="Path 9817" d="M105,42H79a3,3,0,0,0,0,6h26a3,3,0,0,0,0-6Z" fill="#897f7f"/>
  <path id="Path_9818" data-name="Path 9818" d="M123,55H79a3,3,0,0,0,0,6h44a3,3,0,0,0,0-6Z" fill="#edd8d8"/>
  <path id="Path_9819" data-name="Path 9819" d="M68,51.5A14.5,14.5,0,1,0,53.5,66,14.5,14.5,0,0,0,68,51.5Z" fill="#414141"/>
  <path id="Path_9820" data-name="Path 9820" d="M52.6,56.194a5.563,5.563,0,0,0,3.425-1.18L59.1,58.089l.989-.989-3.076-3.076a5.59,5.59,0,1,0-4.413,2.17Zm0-9.794a4.2,4.2,0,1,1-2.97,1.23A4.2,4.2,0,0,1,52.6,46.4Z" fill="#fff"/>
  <g id="Group_8223" data-name="Group 8223">
    <path id="Path_9821" data-name="Path 9821" d="M161,79H26a5,5,0,0,0-5,5v25a5,5,0,0,0,5,5H161a5,5,0,0,0,5-5V84A5,5,0,0,0,161,79Z" fill="#fff"/>
  </g>
  <path id="Path_9822" data-name="Path 9822" d="M90,87H64a3,3,0,0,0,0,6H90a3,3,0,0,0,0-6Z" fill="#897f7f"/>
  <path id="Path_9823" data-name="Path 9823" d="M108,100H64a3,3,0,0,0,0,6h44a3,3,0,0,0,0-6Z" fill="#edd8d8"/>
  <path id="Path_9824" data-name="Path 9824" d="M53,96.5A14.5,14.5,0,1,0,38.5,111,14.5,14.5,0,0,0,53,96.5Z" fill="#414141"/>
  <path id="Path_9825" data-name="Path 9825" d="M37.6,101.194a5.565,5.565,0,0,0,3.425-1.18l3.075,3.075.989-.989-3.076-3.076a5.59,5.59,0,1,0-4.413,2.17Zm0-9.794a4.2,4.2,0,1,1-2.97,1.23A4.2,4.2,0,0,1,37.6,91.4Z" fill="#fff"/>
</svg>
